<?xml version="1.0" encoding="utf-8"?>
<!-- Generator: Adobe Illustrator 23.0.3, SVG Export Plug-In . SVG Version: 6.00 Build 0)  -->
<svg version="1.1" id="Capa_1" xmlns="http://www.w3.org/2000/svg" xmlns:xlink="http://www.w3.org/1999/xlink" x="0px" y="0px"
	 viewBox="0 0 202.6 65.2" enable-background="new 0 0 202.6 65.2" xml:space="preserve">
<title>logo-indra</title>
<rect x="89.8" y="21.4" fill="#1B171B" stroke="#1A171B" stroke-width="0.5" width="7.5" height="22.4"/>
<path fill="none" stroke="#1A171B" stroke-width="0.5" d="M118.9,21.4h-16.5v22.4h7.5V27.6h6.2c0,0,2.8-0.2,2.8,3.1v13.1h7.5V29.1
	C126.5,28.5,126.7,21.6,118.9,21.4z"/>
<path fill="#1B171B" stroke="#1A171B" stroke-width="0.5" d="M119,21.4h-16.5v22.4h7.5V27.6h6.2c0,0,2.8-0.2,2.8,3.1v13.1h7.5V29.1
	C126.6,28.5,126.8,21.6,119,21.4z"/>
<path fill="#1B171B" stroke="#1A171B" stroke-width="0.5" d="M173.8,21.4l0,6.1h-3.1c0,0-2.8-0.1-2.8,2.4l0,13.8h-7.4V28.3
	c0,0-0.1-6.9,6.5-7L173.8,21.4z"/>
<path fill="#1B171B" stroke="#1A171B" stroke-width="0.5" d="M148.3,14.1l0,7.2c0,0-7.7,0-8.3,0c-2,0-4,0.6-5.7,1.7
	c-3.3,2-3.2,6-3.2,6l0,6.9c0,4.2,2.6,6.2,4.4,7c1.2,0.5,2.5,0.7,3.8,0.8h16.4V14.1H148.3z M148.4,37.8h-7.3c0,0-2.4,0.2-2.5-2.2
	v-5.4c0,0-0.2-2.6,2.5-2.6h7.4L148.4,37.8z"/>
<path fill="#1B171B" stroke="#1A171B" stroke-width="0.5" d="M194.9,21.4c0,0-7.7,0-8.3,0c-2,0-4,0.6-5.7,1.7c-3.3,2-3.2,6-3.2,6
	l0,6.9c0,4.2,2.6,6.2,4.4,7c1.2,0.5,2.5,0.7,3.8,0.8h16.4V21.4L194.9,21.4z M195.1,37.8h-7.3c0,0-2.4,0.2-2.5-2.2v-5.4
	c0,0-0.2-2.6,2.5-2.6h7.4L195.1,37.8z"/>
<path fill="#B2B4B5" d="M65.8,31.7c0,2-1.6,3.6-3.6,3.6s-3.6-1.6-3.6-3.6s1.6-3.6,3.6-3.6c0,0,0,0,0,0
	C64.2,28.1,65.8,29.7,65.8,31.7C65.8,31.7,65.8,31.7,65.8,31.7z"/>
<path fill="#B2B4B5" d="M64.4,41.4c0,2-1.6,3.6-3.6,3.6c-2,0-3.6-1.6-3.6-3.6c0-2,1.6-3.6,3.6-3.6l0,0
	C62.8,37.9,64.4,39.5,64.4,41.4C64.4,41.4,64.4,41.4,64.4,41.4z"/>
<path fill="#B2B4B5" d="M54.8,42.6c0,2-1.6,3.6-3.6,3.6c-2,0-3.6-1.6-3.6-3.6c0-2,1.6-3.6,3.6-3.6C53.2,39,54.8,40.6,54.8,42.6
	C54.8,42.6,54.8,42.6,54.8,42.6z"/>
<path fill="#B2B4B5" d="M49.8,34.5c0,2-1.6,3.6-3.6,3.6c-2,0-3.6-1.6-3.6-3.6c0-2,1.6-3.6,3.6-3.6C48.2,30.9,49.8,32.5,49.8,34.5
	C49.8,34.5,49.8,34.5,49.8,34.5z"/>
<path fill="#B2B4B5" d="M56.9,28.7c0,2-1.6,3.6-3.6,3.6c-2,0-3.6-1.6-3.6-3.6s1.6-3.6,3.6-3.6C55.3,25.1,56.9,26.7,56.9,28.7
	C56.9,28.7,56.9,28.7,56.9,28.7z"/>
<path fill="#B2B4B5" d="M63.9,22.1c0,2-1.6,3.6-3.6,3.6c-2,0-3.6-1.6-3.6-3.6s1.6-3.6,3.6-3.6l0,0C62.3,18.5,63.9,20.1,63.9,22.1
	C63.9,22.1,63.9,22.1,63.9,22.1z"/>
<path fill="#B2B4B5" d="M58.9,13.5c0,2-1.6,3.6-3.6,3.6c-2,0-3.6-1.6-3.6-3.6s1.6-3.6,3.6-3.6C57.3,9.9,58.9,11.5,58.9,13.5
	C58.9,13.5,58.9,13.5,58.9,13.5z"/>
<path fill="#B2B4B5" d="M50,7.1c0,2-1.6,3.6-3.6,3.6c-2,0-3.6-1.6-3.6-3.6s1.6-3.6,3.6-3.6C48.4,3.5,50,5.1,50,7.1
	C50,7.1,50,7.1,50,7.1z"/>
<path fill="#B2B4B5" d="M39.2,3.6c0,2-1.6,3.6-3.6,3.6c-2,0-3.6-1.6-3.6-3.6c0-2,1.6-3.6,3.6-3.6C37.6,0,39.2,1.6,39.2,3.6
	C39.2,3.6,39.2,3.6,39.2,3.6z"/>
<path fill="#B2B4B5" d="M43.2,13.5c0,2-1.6,3.6-3.6,3.6c-2,0-3.6-1.6-3.6-3.6s1.6-3.6,3.6-3.6C41.6,10,43.2,11.6,43.2,13.5
	C43.2,13.5,43.2,13.5,43.2,13.5z"/>
<path fill="#B2B4B5" d="M51.7,20.3c0,2-1.6,3.6-3.6,3.6c-2,0-3.6-1.6-3.6-3.6s1.6-3.6,3.6-3.6C50.1,16.7,51.7,18.3,51.7,20.3
	C51.7,20.3,51.7,20.3,51.7,20.3z"/>
<path fill="#B2B4B5" d="M44.7,26.5c0,2-1.6,3.6-3.6,3.6c-2,0-3.6-1.6-3.6-3.6s1.6-3.6,3.6-3.6C43.1,23,44.7,24.6,44.7,26.5
	C44.7,26.5,44.7,26.5,44.7,26.5z"/>
<path fill="#B2B4B5" d="M37.5,20.3c0,2-1.6,3.6-3.6,3.6c-2,0-3.6-1.6-3.6-3.6c0-2,1.6-3.6,3.6-3.6C35.9,16.7,37.5,18.3,37.5,20.3
	C37.5,20.3,37.5,20.3,37.5,20.3z"/>
<path fill="#B2B4B5" d="M30.9,12.6c0,2-1.6,3.6-3.6,3.6c-2,0-3.6-1.6-3.6-3.6S25.3,9,27.3,9C29.3,9,30.9,10.6,30.9,12.6
	C30.9,12.6,30.9,12.6,30.9,12.6z"/>
<path fill="#B2B4B5" d="M27,4.5c0,2-1.6,3.6-3.6,3.6s-3.6-1.6-3.6-3.6c0-2,1.6-3.6,3.6-3.6C25.4,0.9,27,2.5,27,4.5
	C27,4.5,27,4.5,27,4.5z"/>
<path fill="#B2B4B5" d="M18.3,9.2c0,2-1.6,3.6-3.6,3.6s-3.6-1.6-3.6-3.6c0-2,1.6-3.6,3.6-3.6C16.7,5.6,18.3,7.2,18.3,9.2
	C18.3,9.2,18.3,9.2,18.3,9.2z"/>
<path fill="#B2B4B5" d="M11.6,16.6c0,2-1.6,3.6-3.6,3.6c-2,0-3.6-1.6-3.6-3.6c0-2,1.6-3.6,3.6-3.6C10,13,11.6,14.6,11.6,16.6
	C11.6,16.6,11.6,16.6,11.6,16.6z"/>
<path fill="#B2B4B5" d="M20.8,17.7c0,2-1.6,3.6-3.6,3.6c-2,0-3.6-1.6-3.6-3.6c0-2,1.6-3.6,3.6-3.6C19.2,14.1,20.8,15.7,20.8,17.7
	C20.8,17.7,20.8,17.7,20.8,17.7z"/>
<path fill="#B2B4B5" d="M28.6,22.4c0,2-1.6,3.6-3.6,3.6s-3.6-1.6-3.6-3.6s1.6-3.6,3.6-3.6C27,18.8,28.6,20.4,28.6,22.4
	C28.6,22.4,28.6,22.4,28.6,22.4z"/>
<path fill="#B2B4B5" d="M37.8,33.7c0,2-1.6,3.6-3.6,3.6c-2,0-3.6-1.6-3.6-3.6c0-2,1.6-3.6,3.6-3.6c0,0,0,0,0,0
	C36.2,30.1,37.8,31.7,37.8,33.7C37.8,33.7,37.8,33.7,37.8,33.7z"/>
<path fill="#B2B4B5" d="M29.4,31.2c0,2-1.6,3.6-3.6,3.6s-3.6-1.6-3.6-3.6s1.6-3.6,3.6-3.6c0,0,0,0,0,0
	C27.8,27.6,29.4,29.2,29.4,31.2C29.4,31.2,29.4,31.2,29.4,31.2z"/>
<path fill="#B2B4B5" d="M17.9,26.7c0,2-1.6,3.6-3.6,3.6s-3.6-1.6-3.6-3.6s1.6-3.6,3.6-3.6c0,0,0,0,0,0
	C16.3,23.1,17.9,24.7,17.9,26.7C17.9,26.7,17.9,26.7,17.9,26.7z"/>
<path fill="#B2B4B5" d="M7.9,25.7c0,2-1.6,3.6-3.6,3.6s-3.6-1.6-3.6-3.6c0-2,1.6-3.6,3.6-3.6c0,0,0,0,0,0
	C6.3,22.1,7.9,23.7,7.9,25.7C7.9,25.7,7.9,25.7,7.9,25.7z"/>
<path fill="#B2B4B5" d="M7.1,35.7c0,2-1.6,3.6-3.6,3.6S0,37.6,0,35.7c0-2,1.6-3.6,3.6-3.6c0,0,0,0,0,0C5.5,32.1,7.1,33.7,7.1,35.7z"
	/>
<path fill="#B2B4B5" d="M15.8,36.1c0,2-1.6,3.6-3.6,3.6c-2,0-3.6-1.6-3.6-3.6c0-2,1.6-3.6,3.6-3.6c0,0,0,0,0,0
	C14.2,32.5,15.8,34.1,15.8,36.1z"/>
<path fill="#B2B4B5" d="M24.3,37.9c0,2-1.6,3.6-3.6,3.6s-3.6-1.6-3.6-3.6c0-2,1.6-3.6,3.6-3.6c0,0,0,0,0,0
	C22.7,34.3,24.3,35.9,24.3,37.9z"/>
<path fill="#B2B4B5" d="M33.8,43.2c0,2-1.6,3.6-3.6,3.6s-3.6-1.6-3.6-3.6c0-2,1.6-3.6,3.6-3.6c0,0,0,0,0,0
	C32.2,39.6,33.8,41.2,33.8,43.2z"/>
<path fill="#B2B4B5" d="M42.8,40.8c0,2-1.6,3.6-3.6,3.6c-2,0-3.6-1.6-3.6-3.6c0-2,1.6-3.6,3.6-3.6c0,0,0,0,0,0
	C41.2,37.3,42.8,38.9,42.8,40.8z"/>
<path fill="#B2B4B5" d="M48.8,48.8c0,2-1.6,3.6-3.6,3.6s-3.6-1.6-3.6-3.6c0-2,1.6-3.6,3.6-3.6c0,0,0,0,0,0
	C47.2,45.2,48.8,46.8,48.8,48.8z"/>
<path fill="#B2B4B5" d="M59.7,50.3c0,2-1.6,3.6-3.6,3.6c-2,0-3.6-1.6-3.6-3.6c0-2,1.6-3.6,3.6-3.6c0,0,0,0,0,0
	C58.1,46.7,59.7,48.3,59.7,50.3z"/>
<path fill="#B2B4B5" d="M52.4,57c0,2-1.6,3.6-3.6,3.6c-2,0-3.6-1.6-3.6-3.6s1.6-3.6,3.6-3.6c0,0,0,0,0,0
	C50.8,53.5,52.4,55.1,52.4,57z"/>
<path fill="#B2B4B5" d="M40.2,52c0,2-1.6,3.6-3.6,3.6c-2,0-3.6-1.6-3.6-3.6c0-2,1.6-3.6,3.6-3.6c0,0,0,0,0,0
	C38.6,48.4,40.2,50,40.2,52z"/>
<path fill="#B2B4B5" d="M29.7,51.3c0,2-1.6,3.6-3.6,3.6s-3.6-1.6-3.6-3.6c0-2,1.6-3.6,3.6-3.6c0,0,0,0,0,0
	C28.1,47.8,29.7,49.4,29.7,51.3z"/>
<path fill="#B2B4B5" d="M21.5,46.3c0,2-1.6,3.6-3.6,3.6c-2,0-3.6-1.6-3.6-3.6c0-2,1.6-3.6,3.6-3.6c0,0,0,0,0,0
	C19.9,42.7,21.5,44.3,21.5,46.3z"/>
<path fill="#B2B4B5" d="M10,45.1c0,2-1.6,3.6-3.6,3.6c-2,0-3.6-1.6-3.6-3.6c0-2,1.6-3.6,3.6-3.6c0,0,0,0,0,0
	C8.4,41.5,10,43.1,10,45.1z"/>
<path fill="#B2B4B5" d="M15.7,53.2c0,2-1.6,3.6-3.6,3.6s-3.6-1.6-3.6-3.6c0-2,1.6-3.6,3.6-3.6c0,0,0,0,0,0
	C14.1,49.6,15.7,51.2,15.7,53.2z"/>
<path fill="#B2B4B5" d="M23.8,58.9c0,2-1.6,3.6-3.6,3.6s-3.6-1.6-3.6-3.6c0-2,1.6-3.6,3.6-3.6c0,0,0,0,0,0
	C22.2,55.4,23.8,57,23.8,58.9z"/>
<path fill="#B2B4B5" d="M33.4,61.6c0,2-1.6,3.6-3.6,3.6c-2,0-3.6-1.6-3.6-3.6c0-2,1.6-3.6,3.6-3.6c0,0,0,0,0,0
	C31.8,58,33.4,59.6,33.4,61.6z"/>
<path fill="#B2B4B5" d="M43.3,60.9c0,2-1.6,3.6-3.6,3.6c-2,0-3.6-1.6-3.6-3.6c0-2,1.6-3.6,3.6-3.6c0,0,0,0,0,0
	C41.7,57.3,43.3,58.9,43.3,60.9z"/>
</svg>
